name Walk2.mot
datacolumns 19
datarows 22
range 0.59600000 0.61700000
endheader

                time	   L_ground_force_vx	   L_ground_force_vy	   L_ground_force_vz	   L_ground_force_px	   L_ground_force_py	   L_ground_force_pz	   R_ground_force_vx	   R_ground_force_vy	   R_ground_force_vz	   R_ground_force_px	   R_ground_force_py	   R_ground_force_pz	   L_ground_torque_x	   L_ground_torque_y	   L_ground_torque_z	   R_ground_torque_x	   R_ground_torque_y	   R_ground_torque_z	
          0.59600000	          0.00000000	          0.00000000	          0.00000000	          0.00000000	          0.00000000	          0.00000000	          0.00000000	          0.00000000	          0.00000000	          0.00000000	          0.00000000	          0.00000000	          0.00000000	          0.00000000	          0.00000000	          0.00000000	          0.00000000	          0.00000000	
          0.59700000	          0.00000000	          0.00000000	          0.00000000	          0.00000000	          0.00000000	          0.00000000	          0.00000000	          0.00000000	          0.00000000	          0.00000000	          0.00000000	          0.00000000	          0.00000000	          0.00000000	          0.00000000	          0.00000000	          0.00000000	          0.00000000	
          0.59800000	          0.00000000	          0.00000000	          0.00000000	          0.00000000	          0.00000000	          0.00000000	          0.00000000	          0.00000000	          0.00000000	          0.00000000	          0.00000000	          0.00000000	          0.00000000	          0.00000000	          0.00000000	          0.00000000	          0.00000000	          0.00000000	
          0.59900000	          0.00000000	          0.00000000	          0.00000000	          0.00000000	          0.00000000	          0.00000000	          0.00000000	          0.00000000	          0.00000000	          0.00000000	          0.00000000	          0.00000000	          0.00000000	          0.00000000	          0.00000000	          0.00000000	          0.00000000	          0.00000000	
          0.60000000	          0.00000000	          0.00000000	          0.00000000	          0.00000000	          0.00000000	          0.00000000	          0.00000000	          0.00000000	          0.00000000	          0.00000000	          0.00000000	          0.00000000	          0.00000000	          0.00000000	          0.00000000	          0.00000000	          0.00000000	          0.00000000	
          0.60100000	         -0.79116692	          9.70189989	         -2.57638313	         -0.38558715	          0.00000000	         -0.00285666	          0.00000000	          0.00000000	          0.00000000	          0.00000000	          0.00000000	          0.00000000	          0.00000000	         -0.06698161	          0.00000000	          0.00000000	          0.00000000	          0.00000000	
          0.60200000	         -1.49984799	         23.52313794	         -4.37860829	         -0.38990711	          0.00000000	         -0.00117883	          0.00000000	          0.00000000	          0.00000000	          0.00000000	          0.00000000	          0.00000000	          0.00000000	         -0.05834293	          0.00000000	          0.00000000	          0.00000000	          0.00000000	
          0.60300000	         -2.31501486	         43.64081063	         -6.30118090	         -0.39195652	          0.00000000	         -0.00030167	          0.00000000	          0.00000000	          0.00000000	          0.00000000	          0.00000000	          0.00000000	          0.00000000	         -0.02490120	          0.00000000	          0.00000000	          0.00000000	          0.00000000	
          0.60400000	         -3.03821935	         70.28824483	         -8.06696003	         -0.39297682	          0.00000000	          0.00021974	          0.00000000	          0.00000000	          0.00000000	          0.00000000	          0.00000000	          0.00000000	          0.00000000	          0.03101705	          0.00000000	          0.00000000	          0.00000000	          0.00000000	
          0.60500000	         -3.41144114	        103.08625551	         -9.51411925	         -0.39327108	          0.00000000	          0.00046486	          0.00000000	          0.00000000	          0.00000000	          0.00000000	          0.00000000	          0.00000000	          0.00000000	          0.09246552	          0.00000000	          0.00000000	          0.00000000	          0.00000000	
          0.60600000	         -3.21476968	        140.30846890	        -10.63134787	         -0.39316766	          0.00000000	          0.00055781	          0.00000000	          0.00000000	          0.00000000	          0.00000000	          0.00000000	          0.00000000	          0.00000000	          0.14353239	          0.00000000	          0.00000000	          0.00000000	          0.00000000	
          0.60700000	         -2.40630161	        178.63747137	        -11.57811395	         -0.39297846	          0.00000000	          0.00063738	          0.00000000	          0.00000000	          0.00000000	          0.00000000	          0.00000000	          0.00000000	          0.00000000	          0.18065390	          0.00000000	          0.00000000	          0.00000000	          0.00000000	
          0.60800000	         -1.19316309	        214.01870303	        -12.64130839	         -0.39285530	          0.00000000	          0.00078278	          0.00000000	          0.00000000	          0.00000000	          0.00000000	          0.00000000	          0.00000000	          0.00000000	          0.20682353	          0.00000000	          0.00000000	          0.00000000	          0.00000000	
          0.60900000	          0.03412514	        243.07697643	        -14.11563040	         -0.39278799	          0.00000000	          0.00102634	          0.00000000	          0.00000000	          0.00000000	          0.00000000	          0.00000000	          0.00000000	          0.00000000	          0.22275322	          0.00000000	          0.00000000	          0.00000000	          0.00000000	
          0.61000000	          0.85443833	        264.11016787	        -16.18607354	         -0.39268651	          0.00000000	          0.00137658	          0.00000000	          0.00000000	          0.00000000	          0.00000000	          0.00000000	          0.00000000	          0.00000000	          0.22973824	          0.00000000	          0.00000000	          0.00000000	          0.00000000	
          0.61100000	          0.96904152	        277.20387069	        -18.86105264	         -0.39247684	          0.00000000	          0.00181180	          0.00000000	          0.00000000	          0.00000000	          0.00000000	          0.00000000	          0.00000000	          0.00000000	          0.23442737	          0.00000000	          0.00000000	          0.00000000	          0.00000000	
          0.61200000	          0.27593385	        283.74489238	        -21.96846325	         -0.39216338	          0.00000000	          0.00228727	          0.00000000	          0.00000000	          0.00000000	          0.00000000	          0.00000000	          0.00000000	          0.00000000	          0.24412502	          0.00000000	          0.00000000	          0.00000000	          0.00000000	
          0.61300000	         -1.15859617	        285.79539185	        -25.22744114	         -0.39180478	          0.00000000	          0.00275614	          0.00000000	          0.00000000	          0.00000000	          0.00000000	          0.00000000	          0.00000000	          0.00000000	          0.25916688	          0.00000000	          0.00000000	          0.00000000	          0.00000000	
          0.61400000	         -3.17670517	        285.53826959	        -28.36692191	         -0.39143605	          0.00000000	          0.00317913	          0.00000000	          0.00000000	          0.00000000	          0.00000000	          0.00000000	          0.00000000	          0.00000000	          0.27347798	          0.00000000	          0.00000000	          0.00000000	          0.00000000	
          0.61500000	         -5.59864767	        284.82238730	        -31.21167154	         -0.39103726	          0.00000000	          0.00352406	          0.00000000	          0.00000000	          0.00000000	          0.00000000	          0.00000000	          0.00000000	          0.00000000	          0.28275531	          0.00000000	          0.00000000	          0.00000000	          0.00000000	
          0.61600000	         -8.27213456	        284.86709854	        -33.69078956	         -0.39057970	          0.00000000	          0.00376055	          0.00000000	          0.00000000	          0.00000000	          0.00000000	          0.00000000	          0.00000000	          0.00000000	          0.28941454	          0.00000000	          0.00000000	          0.00000000	          0.00000000	
          0.61700000	        -11.09701076	        286.22259137	        -35.79973692	         -0.39007786	          0.00000000	          0.00387724	          0.00000000	          0.00000000	          0.00000000	          0.00000000	          0.00000000	          0.00000000	          0.00000000	          0.29815129	          0.00000000	          0.00000000	          0.00000000	          0.00000000	
